# xmcd
#
# Track frame offsets: 
#        150
#        19319
#        43688
#        68609
#        82591
#        93026
#        109352
#        122724
#        143675
#        157308
#        170550
#        192884
#        206547
#
# Disc length: 3143 seconds
#
# Revision: 0
# Processed by: cddbd v1.5.2PL0 Copyright (c) Steve Scherf et al.
# Submitted via: ExactAudioCopy v1.0b1
#
DISCID=aa0c450d
DTITLE=Harvey Dalton Arnold Blues Band - Up And Runnin'
DYEAR=2011
DGENRE=Blues
TTITLE0=I'm Ready
TTITLE1=Laughing
TTITLE2=Stay With Me
TTITLE3=I Got You
TTITLE4=Same Thing
TTITLE5=Can't Have Nothing
TTITLE6=Peace In Hell
TTITLE7=Here In The Dark
TTITLE8=Every Day I Have The Blues
TTITLE9=You Upset Me
TTITLE10=Diving Duck Blues
TTITLE11=Ain't Got Love
TTITLE12=Baby You
EXTD=
EXTT0=
EXTT1=
EXTT2=
EXTT3=
EXTT4=
EXTT5=
EXTT6=
EXTT7=
EXTT8=
EXTT9=
EXTT10=
EXTT11=
EXTT12=
PLAYORDER=
